<svg width="12" height="12" viewBox="0 0 12 12" fill="none" xmlns="http://www.w3.org/2000/svg">
<path d="M6.20879 0.65232L6.20882 0.652287C6.30633 0.55478 6.43867 0.5 6.5761 0.5H10.845C11.1322 0.5 11.3646 0.7324 11.3646 1.01957V5.288C11.3646 5.42582 11.3099 5.55831 11.2121 5.65649C11.212 5.65658 11.212 5.65668 11.2119 5.65678L5.6557 11.2119L5.65567 11.2119C5.45279 11.4148 5.12398 11.4148 4.9211 11.2119L0.652386 6.94323C0.44908 6.73966 0.449405 6.41068 0.65216 6.20793L6.20879 0.65232ZM7.79612 2.80382C7.79612 3.50206 8.36255 4.0685 9.0608 4.0685C9.75904 4.0685 10.3255 3.50206 10.3255 2.80382C10.3255 2.10557 9.75904 1.53914 9.0608 1.53914C8.36255 1.53914 7.79612 2.10557 7.79612 2.80382Z" fill="#546376" stroke="#546376"/>
</svg>
