<svg width="23" height="23" viewBox="0 0 23 23" fill="none" xmlns="http://www.w3.org/2000/svg">
<path d="M8.36599 3.85938C6.59193 3.85938 5.14847 5.24511 5.14847 6.9463C5.13681 9.43475 8.24373 11.4981 8.36599 11.5815C8.36599 11.5815 11.5952 9.43475 11.5835 6.94823C11.5835 5.24511 10.1401 3.85938 8.36599 3.85938ZM8.36599 8.49265C7.47715 8.49265 6.75723 7.80152 6.75723 6.94823C6.75723 6.09493 7.47715 5.4038 8.36599 5.4038C9.25483 5.4038 9.97475 6.09493 9.97475 6.94823C9.97475 7.80152 9.25483 8.49265 8.36599 8.49265Z" fill="white"/>
<path d="M16.0878 14.1572H15.071L14.7107 13.8097C15.9719 12.3425 16.7313 10.4377 16.7313 8.36564C16.7313 3.74523 12.986 0 8.36564 0C3.74523 0 0 3.74523 0 8.36564C0 12.986 3.74523 16.7313 8.36564 16.7313C10.4377 16.7313 12.3425 15.9719 13.8097 14.7107L14.1572 15.071V16.0878L20.5923 22.51L22.51 20.5923L16.0878 14.1572ZM8.36564 14.1572C5.16095 14.1572 2.57404 11.5703 2.57404 8.36564C2.57404 5.16095 5.16095 2.57404 8.36564 2.57404C11.5703 2.57404 14.1572 5.16095 14.1572 8.36564C14.1572 11.5703 11.5703 14.1572 8.36564 14.1572Z" fill="white"/>
</svg>
