<svg width="24" height="22" viewBox="0 0 24 22" fill="none" xmlns="http://www.w3.org/2000/svg">
<path d="M16.7593 18.8272C17.0615 19.1177 17.0386 19.611 16.69 19.8485C14.9449 21.0414 12.8623 21.6933 10.7211 21.7167C5.06633 21.7842 0.198633 17.3275 0.0062725 11.8928C-0.180794 6.60097 3.83849 2.18541 9.09576 1.47119C9.51269 1.41436 9.88285 1.74729 9.88285 2.15233V12.2164L16.7593 18.8272Z" fill="white"/>
<path d="M22.5887 9.4678C22.2234 4.40122 18.0117 0.352526 12.7412 0.0013507C12.3388 -0.0236726 12 0.302479 12 0.690128V10.1803H21.8726C22.2759 10.1803 22.6147 9.8546 22.5887 9.4678ZM23.2853 12.2161H12.8162L19.7871 18.9173C20.0518 19.1718 20.493 19.1942 20.7661 18.9461C22.5167 17.3651 23.6547 15.258 23.9926 12.9719C24.053 12.572 23.7067 12.2161 23.2853 12.2161Z" fill="white"/>
</svg>
