<svg width="26" height="19" viewBox="0 0 26 19" fill="none" xmlns="http://www.w3.org/2000/svg">
<path d="M1.11839e-07 1.29103C1.41649e-07 0.950033 0.135609 0.623006 0.376995 0.381888C0.618382 0.14077 0.945773 0.00531163 1.28714 0.00531166L11.5843 0.00531256C11.7633 -0.012632 11.944 0.0070931 12.1149 0.063214C12.2858 0.119335 12.443 0.210605 12.5764 0.331141C12.7097 0.451677 12.8164 0.598802 12.8893 0.763026C12.9623 0.92725 13 1.10493 13 1.2846C13 1.46427 12.9623 1.64195 12.8893 1.80617C12.8164 1.97039 12.7097 2.11752 12.5764 2.23806C12.443 2.35859 12.2858 2.44986 12.1149 2.50598C11.944 2.56211 11.7633 2.58183 11.5843 2.56388L1.28714 2.56388C0.947991 2.5639 0.622538 2.43021 0.381517 2.19186C0.140498 1.95352 0.0033923 1.62979 1.11839e-07 1.29103Z" fill="#3C7EF3"/>
<path d="M2.01919e-06 9.00587C2.049e-06 8.66488 0.136284 8.33785 0.37887 8.09673C0.621456 7.85561 0.950474 7.72015 1.29354 7.72015L24.5773 7.72016C24.7571 7.70221 24.9388 7.72193 25.1105 7.77806C25.2822 7.83418 25.4402 7.92545 25.5743 8.04598C25.7083 8.16652 25.8155 8.31364 25.8888 8.47787C25.9621 8.64209 26 8.81977 26 8.99944C26 9.17911 25.9621 9.35679 25.8888 9.52102C25.8155 9.68524 25.7083 9.83236 25.5743 9.9529C25.4402 10.0734 25.2822 10.1647 25.1105 10.2208C24.9388 10.2769 24.7571 10.2967 24.5773 10.2787L1.29354 10.2787C0.952703 10.2787 0.625631 10.1451 0.383413 9.90671C0.141197 9.66836 0.00341042 9.34463 2.01919e-06 9.00587Z" fill="#3C7EF3"/>
<path d="M1.42905 15.435C1.2483 15.4171 1.06574 15.4368 0.893158 15.4929C0.720579 15.549 0.561812 15.6403 0.42709 15.7608C0.292368 15.8814 0.184689 16.0285 0.110991 16.1927C0.0372945 16.3569 -0.000781885 16.5346 -0.000781901 16.7143C-0.000781916 16.894 0.0372945 17.0716 0.110991 17.2359C0.184689 17.4001 0.292368 17.5472 0.42709 17.6677C0.561811 17.7883 0.720579 17.8795 0.893158 17.9357C1.06574 17.9918 1.24829 18.0115 1.42905 17.9936L17.0291 17.9936C17.3497 17.9617 17.647 17.8132 17.8633 17.5768C18.0795 17.3404 18.1992 17.033 18.1992 16.7143C18.1992 16.3955 18.0795 16.0881 17.8633 15.8517C17.647 15.6154 17.3497 15.4668 17.0291 15.435L1.42905 15.435Z" fill="#3C7EF3"/>
</svg>
