<svg width="16" height="16" viewBox="0 0 16 16" fill="none" xmlns="http://www.w3.org/2000/svg">
<path d="M3.20833 6.91667C4.54167 9.5 6.5 11.4583 9.08333 12.7917L11.0417 10.8333C11.3194 10.5556 11.625 10.4861 11.9583 10.625C12.9583 10.9583 14.0139 11.125 15.125 11.125C15.375 11.125 15.5833 11.2083 15.75 11.375C15.9167 11.5417 16 11.75 16 12V15.125C16 15.375 15.9167 15.5833 15.75 15.75C15.5833 15.9167 15.375 16 15.125 16C10.9583 16 7.38889 14.5278 4.41667 11.5833C1.47222 8.61111 0 5.04167 0 0.875C0 0.625 0.0833333 0.416667 0.25 0.25C0.416667 0.0833333 0.625 0 0.875 0H4C4.25 0 4.45833 0.0833333 4.625 0.25C4.79167 0.416667 4.875 0.625 4.875 0.875C4.875 1.98611 5.04167 3.04167 5.375 4.04167C5.48611 4.40278 5.41667 4.70833 5.16667 4.95833L3.20833 6.91667Z" fill="white"/>
</svg>
