<svg width="70" height="70" viewBox="0 0 70 70" fill="none" xmlns="http://www.w3.org/2000/svg">
<g filter="url(#filter0_d)">
<circle cx="35" cy="23" r="20" fill="#68EBCA"/>
</g>
<path d="M30.2083 21.9167C31.5417 24.5 33.5 26.4583 36.0833 27.7917L38.0417 25.8333C38.3194 25.5556 38.625 25.4861 38.9583 25.625C39.9583 25.9583 41.0139 26.125 42.125 26.125C42.375 26.125 42.5833 26.2083 42.75 26.375C42.9167 26.5417 43 26.75 43 27V30.125C43 30.375 42.9167 30.5833 42.75 30.75C42.5833 30.9167 42.375 31 42.125 31C37.9583 31 34.3889 29.5278 31.4167 26.5833C28.4722 23.6111 27 20.0417 27 15.875C27 15.625 27.0833 15.4167 27.25 15.25C27.4167 15.0833 27.625 15 27.875 15H31C31.25 15 31.4583 15.0833 31.625 15.25C31.7917 15.4167 31.875 15.625 31.875 15.875C31.875 16.9861 32.0417 18.0417 32.375 19.0417C32.4861 19.4028 32.4167 19.7083 32.1667 19.9583L30.2083 21.9167Z" fill="white"/>
<defs>
<filter id="filter0_d" x="0" y="0" width="70" height="70" filterUnits="userSpaceOnUse" color-interpolation-filters="sRGB">
<feFlood flood-opacity="0" result="BackgroundImageFix"/>
<feColorMatrix in="SourceAlpha" type="matrix" values="0 0 0 0 0 0 0 0 0 0 0 0 0 0 0 0 0 0 127 0"/>
<feOffset dy="12"/>
<feGaussianBlur stdDeviation="7.5"/>
<feColorMatrix type="matrix" values="0 0 0 0 0 0 0 0 0 0 0 0 0 0 0 0 0 0 0.16 0"/>
<feBlend mode="normal" in2="BackgroundImageFix" result="effect1_dropShadow"/>
<feBlend mode="normal" in="SourceGraphic" in2="effect1_dropShadow" result="shape"/>
</filter>
</defs>
</svg>
