<svg width="34" height="25" viewBox="0 0 34 25" fill="none" xmlns="http://www.w3.org/2000/svg">
<path d="M10.3096 7.77987C9.19546 10.7958 9.05785 13.8557 9.89681 16.9596L12.9567 17.0972C13.3907 17.1167 13.6754 17.3143 13.8107 17.6901C14.2847 18.7552 14.9362 19.7413 15.7652 20.6483C15.9518 20.8524 16.0392 21.0847 16.0275 21.3451C16.0157 21.6055 15.9078 21.829 15.7037 22.0155L13.1525 24.3471C12.9485 24.5337 12.7162 24.6211 12.4558 24.6094C12.1954 24.5977 11.9719 24.4898 11.7854 24.2857C8.67654 20.8841 7.21522 16.8716 7.4014 12.2482C7.63098 7.62679 9.44656 3.76167 12.8482 0.652851C13.0523 0.466322 13.2845 0.378914 13.5449 0.390625C13.8053 0.402336 14.0288 0.51024 14.2154 0.714336L16.547 3.26554C16.7335 3.46963 16.8209 3.70189 16.8092 3.9623C16.7975 4.22272 16.6896 4.44619 16.4855 4.63272C15.5784 5.46174 14.841 6.38537 14.2733 7.40362C14.0614 7.76376 13.7602 7.93504 13.3695 7.91748L10.3096 7.77987Z" fill="white"/>
<path d="M31.5502 5.53003H20.324C19.1503 5.53003 18.1953 6.50295 18.1953 7.69919V14.6999C18.1953 15.8934 19.1461 16.8648 20.3165 16.8691V20.0459L24.7968 16.8691H31.5502C32.7239 16.8691 33.6789 15.8959 33.6789 14.6999V7.69919C33.6789 6.50295 32.7239 5.53003 31.5502 5.53003ZM32.7717 14.6999C32.7717 15.3861 32.2237 15.9446 31.5502 15.9446H24.5122L21.2237 18.2764V15.9446H20.324C19.6505 15.9446 19.1026 15.3861 19.1026 14.6999V7.69919C19.1026 7.01276 19.6505 6.45451 20.324 6.45451H31.5502C32.2237 6.45451 32.7717 7.01276 32.7717 7.69919V14.6999Z" fill="white"/>
</svg>
