<svg width="22" height="16" viewBox="0 0 22 16" fill="none" xmlns="http://www.w3.org/2000/svg">
<path d="M22 3.56641V2.40625C22 1.07731 20.9227 0 19.5938 0H2.40625C1.07731 0 0 1.07731 0 2.40625V3.56641C0 3.68504 0.096207 3.78125 0.214844 3.78125H21.7852C21.9038 3.78125 22 3.68504 22 3.56641Z" fill="white"/>
<path d="M0 5.37109V12.7188C0 14.0477 1.07731 15.125 2.40625 15.125H19.5938C20.9227 15.125 22 14.0477 22 12.7188V5.37109C22 5.25246 21.9038 5.15625 21.7852 5.15625H0.214844C0.096207 5.15625 0 5.25246 0 5.37109ZM5.5 11C5.5 11.3797 5.19217 11.6875 4.8125 11.6875H4.125C3.74533 11.6875 3.4375 11.3797 3.4375 11V10.3125C3.4375 9.93283 3.74533 9.625 4.125 9.625H4.8125C5.19217 9.625 5.5 9.93283 5.5 10.3125V11Z" fill="white"/>
</svg>
