<svg width="26" height="26" viewBox="0 0 26 26" fill="none" xmlns="http://www.w3.org/2000/svg">
<path d="M13 0C5.83151 0 0 5.83151 0 13C0 20.1685 5.83151 26 13 26C20.1685 26 26 20.1685 26 13C26 5.83151 20.1685 0 13 0ZM19.1826 19.7242C18.9714 19.9354 18.694 20.0417 18.4167 20.0417C18.1394 20.0417 17.8619 19.9354 17.6508 19.7242L12.2341 14.3076C12.0304 14.1051 11.9167 13.8298 11.9167 13.5417V6.5C11.9167 5.90094 12.4019 5.41673 13 5.41673C13.5981 5.41673 14.0833 5.90094 14.0833 6.5V13.0932L19.1826 18.1924C19.6061 18.6161 19.6061 19.3006 19.1826 19.7242Z" fill="white"/>
</svg>
