<svg width="24" height="25" viewBox="0 0 24 25" fill="none" xmlns="http://www.w3.org/2000/svg">
<path d="M12.7032 0C11.152 0 9.84375 1.30828 9.84375 2.85947C9.84375 4.41066 11.152 5.71894 12.7032 5.71894C14.2544 5.71894 15.5158 4.41066 15.5158 2.85947C15.5158 1.30828 14.2544 0 12.7032 0Z" fill="white"/>
<path d="M15.8249 5.71875C15.0521 6.57561 13.9453 7.12505 12.7033 7.12505C11.4612 7.12505 10.3075 6.57561 9.53479 5.71875C8.86014 6.46685 8.4375 7.4469 8.4375 8.53134V9.23449C8.4375 9.62315 8.75199 9.93764 9.14065 9.93764H16.219C16.6077 9.93764 16.9222 9.62315 16.9222 9.23449V8.53134C16.9222 7.4469 16.4995 6.46685 15.8249 5.71875Z" fill="white"/>
<path d="M6.79343 21.588L3.21013 14.404C2.86414 13.7102 2.02205 13.4273 1.32748 13.7715L0.390931 14.2354C0.0422164 14.4083 -0.099679 14.8321 0.0743737 15.1802L4.29326 23.618C4.46675 23.966 4.88878 24.1045 5.23469 23.9339L6.15919 23.4759C6.85647 23.1305 7.14069 22.2844 6.79343 21.588Z" fill="white"/>
<path d="M23.4247 11.6159C22.8481 11.194 22.0465 11.2784 21.5684 11.7987L17.7245 16.5238C17.4574 16.8051 16.9511 16.9739 16.6839 16.9739H13.4072C13.0134 16.9739 12.704 16.6645 12.704 16.2707C12.704 15.8769 13.0134 15.5676 13.4072 15.5676C14.3489 15.5676 15.3915 15.5676 16.2198 15.5676C16.9932 15.5676 17.6261 14.9347 17.6261 14.1613C17.6261 13.3878 16.9932 12.755 16.2198 12.755C12.9175 12.755 16.0674 12.755 12.5353 12.755C12.1848 12.755 12.0101 12.5327 11.7337 12.2908C10.6457 11.3118 9.01722 10.8402 7.36858 11.2223C6.45317 11.4345 5.83585 11.8043 5.20977 12.3001L5.18891 12.2832L4.17188 13.1783L8.16876 21.1927H9.3523H16.2198C17.5417 21.1927 18.8074 20.5599 19.5949 19.5052L23.72 13.5987C24.1841 12.9799 24.0575 12.08 23.4247 11.6159Z" fill="white"/>
</svg>
