<svg width="23" height="25" viewBox="0 0 23 25" fill="none" xmlns="http://www.w3.org/2000/svg">
<path d="M5.65641 0.554688H2.4688C1.59007 0.554688 0.875 1.26976 0.875 2.14849V4.27358C0.875 5.15231 1.59007 5.86738 2.4688 5.86738H5.65641C6.53515 5.86738 7.25022 5.15231 7.25022 4.27358V2.14849C7.25022 1.26976 6.53515 0.554688 5.65641 0.554688Z" fill="white"/>
<path d="M13.0929 0.554688H9.90533C9.02659 0.554688 8.31152 1.26976 8.31152 2.14849V4.27358C8.31152 5.15231 9.02659 5.86738 9.90533 5.86738H13.0929C13.9717 5.86738 14.6867 5.15231 14.6867 4.27358V2.14849C14.6867 1.26976 13.9717 0.554688 13.0929 0.554688Z" fill="white"/>
<path d="M20.5324 0.554688H17.3448C16.466 0.554688 15.751 1.26976 15.751 2.14849V4.27358C15.751 5.15231 16.466 5.86738 17.3448 5.86738H20.5324C21.4111 5.86738 22.1262 5.15231 22.1262 4.27358V2.14849C22.1262 1.26976 21.4111 0.554688 20.5324 0.554688Z" fill="white"/>
<path d="M5.65641 6.93311H2.4688C1.59007 6.93311 0.875 7.64818 0.875 8.52691V10.652C0.875 11.5307 1.59007 12.2458 2.4688 12.2458H5.65641C6.53515 12.2458 7.25022 11.5307 7.25022 10.652V8.52691C7.25022 7.64818 6.53515 6.93311 5.65641 6.93311Z" fill="white"/>
<path d="M13.0959 6.93311H9.90826C9.02952 6.93311 8.31445 7.64818 8.31445 8.52691V10.652C8.31445 11.5307 9.02952 12.2458 9.90826 12.2458H13.0959C13.9746 12.2458 14.6897 11.5307 14.6897 10.652V8.52691C14.6897 7.64818 13.9746 6.93311 13.0959 6.93311Z" fill="white"/>
<path d="M20.5324 6.93311H17.3448C16.466 6.93311 15.751 7.64818 15.751 8.52691V10.652C15.751 11.5307 16.466 12.2458 17.3448 12.2458H20.5324C21.4111 12.2458 22.1262 11.5307 22.1262 10.652V8.52691C22.1262 7.64818 21.4111 6.93311 20.5324 6.93311Z" fill="white"/>
<path d="M5.65641 13.3103H2.4688C1.59007 13.3103 0.875 14.0254 0.875 14.9041V17.0292C0.875 17.9079 1.59007 18.623 2.4688 18.623H5.65641C6.53515 18.623 7.25022 17.9079 7.25022 17.0292V14.9041C7.25022 14.0254 6.53515 13.3103 5.65641 13.3103Z" fill="white"/>
<path d="M13.0929 13.3103H9.90533C9.02659 13.3103 8.31152 14.0254 8.31152 14.9041V17.0292C8.31152 17.9079 9.02659 18.623 9.90533 18.623H13.0929C13.9717 18.623 14.6867 17.9079 14.6867 17.0292V14.9041C14.6867 14.0254 13.9717 13.3103 13.0929 13.3103Z" fill="white"/>
<path d="M20.5324 13.3103H17.3448C16.466 13.3103 15.751 14.0254 15.751 14.9041V17.0292C15.751 17.9079 16.466 18.623 17.3448 18.623H20.5324C21.4111 18.623 22.1262 17.9079 22.1262 17.0292V14.9041C22.1262 14.0254 21.4111 13.3103 20.5324 13.3103Z" fill="white"/>
<path d="M13.0929 19.6863H9.90533C9.02659 19.6863 8.31152 20.4013 8.31152 21.2801V23.4052C8.31152 24.2839 9.02659 24.999 9.90533 24.999H13.0929C13.9717 24.999 14.6867 24.2839 14.6867 23.4052V21.2801C14.6867 20.4013 13.9717 19.6863 13.0929 19.6863Z" fill="white"/>
</svg>
