<svg width="28" height="28" viewBox="0 0 28 28" fill="none" xmlns="http://www.w3.org/2000/svg">
<path d="M17.3041 21.6218H16.7168L16.2625 20.6829H11.7339L11.2796 21.6237H10.6931C10.6188 21.6237 10.5476 21.6532 10.4951 21.7057C10.4426 21.7582 10.4131 21.8294 10.4131 21.9037C10.4131 21.9779 10.4426 22.0491 10.4951 22.1017C10.5476 22.1542 10.6188 22.1837 10.6931 22.1837H17.3041C17.3783 22.1837 17.4496 22.1542 17.5021 22.1017C17.5546 22.0491 17.5841 21.9779 17.5841 21.9037C17.5841 21.8294 17.5546 21.7582 17.5021 21.7057C17.4496 21.6532 17.3783 21.6237 17.3041 21.6237V21.6218Z" fill="white"/>
<path d="M21.8286 5.81738H6.16723C5.79404 5.81768 5.43622 5.96606 5.17233 6.22995C4.90844 6.49383 4.76006 6.85166 4.75977 7.22485V17.0786H23.2398V7.22485C23.2387 6.85125 23.0895 6.49332 22.825 6.2295C22.5605 5.96568 22.2022 5.81748 21.8286 5.81738Z" fill="white"/>
<path d="M4.75977 18.785C4.75952 18.9701 4.79573 19.1534 4.86633 19.3245C4.93693 19.4956 5.04054 19.6511 5.17123 19.7821C5.30193 19.9132 5.45715 20.0172 5.62805 20.0882C5.79894 20.1593 5.98216 20.196 6.16723 20.1962H21.8286C22.2028 20.1959 22.5615 20.0472 22.8261 19.7826C23.0907 19.518 23.2395 19.1592 23.2398 18.785V17.6404H4.75977V18.785ZM13.8318 18.6125H14.1678C14.242 18.6125 14.3132 18.642 14.3658 18.6946C14.4183 18.7471 14.4478 18.8183 14.4478 18.8925C14.4478 18.9668 14.4183 19.038 14.3658 19.0905C14.3132 19.143 14.242 19.1725 14.1678 19.1725H13.8318C13.7575 19.1725 13.6863 19.143 13.6338 19.0905C13.5813 19.038 13.5518 18.9668 13.5518 18.8925C13.5518 18.8183 13.5813 18.7471 13.6338 18.6946C13.6863 18.642 13.7575 18.6125 13.8318 18.6125Z" fill="white"/>
</svg>
