<svg width="26" height="25" viewBox="0 0 26 25" fill="none" xmlns="http://www.w3.org/2000/svg">
<path d="M21.6144 9.2082C23.7374 10.7075 25.0317 12.1948 25.0858 12.2574L25.4993 12.7361L25.0858 13.2149C25.0317 13.2775 23.7375 14.7648 21.6144 16.2641C18.7761 18.2684 15.7967 19.3279 12.9983 19.3279C11.4857 19.3279 9.92053 19.0177 8.35335 18.4169L1.7975 24.9727L0.761719 23.9369L24.199 0.49958L25.2348 1.53536L19.0818 7.68834C19.9327 8.11143 20.7797 8.61875 21.6144 9.2082ZM12.9983 16.3982C15.0176 16.3982 16.6604 14.7554 16.6604 12.7361C16.6604 11.9908 16.436 11.2972 16.0521 10.7181L14.9808 11.7894C15.1183 12.0762 15.1955 12.3973 15.1955 12.7361C15.1955 13.9477 14.2098 14.9334 12.9983 14.9334C12.6595 14.9334 12.3384 14.8562 12.0516 14.7186L10.9803 15.7899C11.5593 16.1739 12.253 16.3982 12.9983 16.3982Z" fill="white"/>
<path d="M12.9982 9.07346C10.9789 9.07346 9.3361 10.7163 9.3361 12.7355C9.3361 12.9112 9.34929 13.0838 9.37336 13.253L5.5795 17.0469C5.17862 16.8042 4.77955 16.5433 4.38327 16.2634C2.26082 14.7641 0.967232 13.2767 0.91318 13.2141L0.5 12.7355L0.91318 12.2569C0.967232 12.1943 2.26082 10.707 4.38327 9.20769C7.22069 7.20331 10.1997 6.1438 12.9982 6.1438C14.0054 6.1438 15.0362 6.28178 16.0753 6.55097L13.5157 9.11067C13.3465 9.08664 13.1739 9.07346 12.9982 9.07346Z" fill="white"/>
</svg>
