<svg width="22" height="22" viewBox="0 0 22 22" fill="none" xmlns="http://www.w3.org/2000/svg">
<path d="M10.979 0C4.91496 0 0 4.91544 0 10.979C0 17.0426 4.91496 21.958 10.979 21.958C17.043 21.958 21.958 17.0421 21.958 10.979C21.958 4.91592 17.0426 0 10.979 0ZM11.6436 15.8696V17.1405C11.6436 17.3388 11.4893 17.4831 11.2905 17.4831H10.4434C10.2446 17.4831 10.0846 17.3388 10.0846 17.1405V15.9814C9.30484 15.946 8.51841 15.7798 7.92309 15.5533C7.60059 15.431 7.42094 15.0856 7.50647 14.7511L7.64455 14.2131C7.6928 14.0244 7.81894 13.8667 7.99142 13.7783C8.1639 13.6885 8.36648 13.6794 8.54756 13.7487C9.11469 13.968 9.78454 14.1276 10.4998 14.1276C11.4104 14.1276 12.0339 13.7759 12.0339 13.1367C12.0339 12.5294 11.5227 12.1457 10.3397 11.7458C8.62974 11.1706 7.45869 10.3717 7.45869 8.82133C7.45869 7.41521 8.45391 6.31248 10.1553 5.9766V4.8175C10.1553 4.61922 10.3249 4.44148 10.5237 4.44148H11.3708C11.5695 4.44148 11.7153 4.61922 11.7153 4.8175V5.86432C12.4592 5.89633 12.9962 6.0067 13.4453 6.1529C13.785 6.26375 13.9857 6.6197 13.8963 6.96657L13.775 7.44818C13.7277 7.63164 13.6063 7.7874 13.4401 7.87723C13.2738 7.96705 13.0774 7.98329 12.8978 7.92166C12.4898 7.78167 11.9575 7.65458 11.2829 7.65458C10.2442 7.65458 9.90829 8.10226 9.90829 8.54995C9.90829 9.07742 10.4678 9.41282 11.8261 9.92453C13.7277 10.5958 14.4917 11.4749 14.4917 12.9126C14.4912 14.335 13.4864 15.5504 11.6436 15.8696Z" fill="white"/>
</svg>
