<svg width="19" height="19" viewBox="0 0 19 19" fill="none" xmlns="http://www.w3.org/2000/svg">
<path d="M18.1145 0H14.0382C13.7802 0 13.5711 0.209095 13.5711 0.467089V2.24202H11.5668C10.5354 2.24312 9.69957 3.07895 9.69847 4.11038V7.0742H8.27166C8.01367 7.0742 7.80458 7.2833 7.80458 7.54129V8.9681H5.01062V7.19316C5.01062 6.93517 4.80152 6.72607 4.54353 6.72607H0.467089C0.209095 6.72607 0 6.93517 0 7.19316V11.6772C0 11.9352 0.209095 12.1443 0.467089 12.1443H4.54353C4.80152 12.1443 5.01062 11.9352 5.01062 11.6772V9.90228H7.80458V11.3291C7.80458 11.5871 8.01367 11.7962 8.27166 11.7962H9.69847V14.76C9.69957 15.7914 10.5354 16.6273 11.5668 16.6284H13.5711V18.4033C13.5711 18.6613 13.7802 18.8704 14.0382 18.8704H18.1145C18.3725 18.8704 18.5815 18.6613 18.5815 18.4033V13.9192C18.5815 13.6612 18.3725 13.4521 18.1145 13.4521H14.0382C13.7802 13.4521 13.5711 13.6612 13.5711 13.9192V15.6942H11.5668C11.051 15.6936 10.6332 15.2756 10.6327 14.76V11.7962H11.8555C12.1135 11.7962 12.3226 11.5871 12.3226 11.3291V7.54129C12.3226 7.2833 12.1135 7.0742 11.8555 7.0742H10.6327V4.11038C10.6332 3.59476 11.051 3.17675 11.5668 3.1762H13.5711V4.95114C13.5711 5.20913 13.7802 5.41823 14.0382 5.41823H18.1145C18.3725 5.41823 18.5815 5.20913 18.5815 4.95114V0.467089C18.5815 0.209095 18.3725 0 18.1145 0Z" fill="white"/>
</svg>
