<svg width="24" height="21" viewBox="0 0 24 21" fill="none" xmlns="http://www.w3.org/2000/svg">
<path d="M11.9425 9.92829C14.1997 9.92829 16.0296 7.70574 16.0296 4.96418C16.0296 2.22255 15.4287 0 11.9425 0C8.45624 0 7.85547 2.22255 7.85547 4.96418C7.85553 7.70574 9.68541 9.92829 11.9425 9.92829Z" fill="white"/>
<path d="M19.6526 17.307C19.577 12.531 18.9532 11.1701 14.1801 10.3086C14.1801 10.3086 13.5081 11.1647 11.9421 11.1647C10.376 11.1647 9.70413 10.3086 9.70413 10.3086C4.98307 11.1606 4.32127 12.5014 4.23428 17.1518C4.22721 17.5315 4.22395 17.5514 4.22266 17.5073C4.2229 17.5899 4.22327 17.7427 4.22327 18.0091C4.22327 18.0091 5.35967 20.3 11.9421 20.3C18.5246 20.3 19.6611 18.0091 19.6611 18.0091C19.6611 17.838 19.6612 17.7189 19.6613 17.638C19.66 17.6652 19.6574 17.6124 19.6526 17.307Z" fill="white"/>
<path d="M17.6121 9.04015C19.4454 9.04015 20.9315 7.23506 20.9315 5.00839C20.9315 2.78166 20.4436 0.976562 17.6121 0.976562C17.1359 0.976562 16.7261 1.02781 16.3735 1.12346C17.0275 2.32908 17.1171 3.79343 17.1171 4.96231C17.1171 6.28579 16.7583 7.54935 16.0977 8.59557C16.5518 8.87916 17.0664 9.04015 17.6121 9.04015Z" fill="white"/>
<path d="M23.8771 15.0355C23.8156 11.1565 23.3091 10.0513 19.4324 9.35156C19.4324 9.35156 18.8867 10.047 17.6147 10.047C17.5621 10.047 17.5111 10.0454 17.4609 10.0431C18.2691 10.4074 19.0043 10.9148 19.5457 11.6572C20.4817 12.9406 20.6969 14.6647 20.7413 17.1975C23.3494 16.6821 23.8839 15.6059 23.8839 15.6059C23.8839 15.4656 23.8839 15.3694 23.8842 15.3036C23.8831 15.3268 23.881 15.2853 23.8771 15.0355Z" fill="white"/>
<path d="M6.26849 9.044C6.81433 9.044 7.3288 8.88301 7.7831 8.59947C7.12241 7.55326 6.76364 6.2897 6.76364 4.96622C6.76364 3.79727 6.85327 2.33292 7.50714 1.12737C7.15464 1.03171 6.74488 0.980469 6.26849 0.980469C3.43705 0.980469 2.94922 2.78556 2.94922 5.01229C2.94922 7.2389 4.43535 9.044 6.26849 9.044Z" fill="white"/>
<path d="M6.42311 10.0431C6.37304 10.0454 6.32204 10.047 6.26932 10.047C4.9974 10.047 4.45168 9.35156 4.45168 9.35156C0.575123 10.0513 0.0684684 11.1565 0.00707446 15.0355C0.00307585 15.2854 0.00104579 15.3268 0 15.3036C0.000123034 15.3693 0.000246068 15.4656 0.000246068 15.6058C0.000246068 15.6058 0.534829 16.6821 3.14278 17.1974C3.18738 14.6647 3.40244 12.9406 4.33855 11.6571C4.8799 10.9148 5.61497 10.4074 6.42311 10.0431Z" fill="white"/>
</svg>
