<svg width="22" height="21" viewBox="0 0 22 21" fill="none" xmlns="http://www.w3.org/2000/svg">
<path d="M21.8649 12.5537L17.9773 19.9114C17.7871 20.2772 17.2479 20.6642 16.8316 20.6642L1.24133 20.667C0.911969 20.667 0.596191 20.5365 0.363467 20.3035C0.130743 20.0706 0 19.7552 0 19.4257L0.00252356 7.31969C0.00252356 6.63507 0.557521 6.07955 1.24222 6.07888L2.38209 6.0778V7.13532H1.61949C1.47023 7.13532 1.32687 7.19455 1.22125 7.30017C1.11575 7.40579 1.05641 7.54904 1.05641 7.69841L1.05752 19.0469C1.05752 19.3581 1.30976 19.6099 1.62072 19.6099H2.40172L6.08612 12.1567C6.29427 11.7403 6.68761 11.4038 7.10337 11.4038H16.1266L16.1297 8.40441C16.7188 8.45904 17.1838 8.94776 17.1838 9.55089V11.4039H21.3222C21.8109 11.4089 22.2225 11.8922 21.8649 12.5537ZM3.10093 15.8581C3.06727 12.1481 3.10093 1.01792 3.10093 1.01792C3.10093 0.456356 3.55762 0 4.11863 0H12.2688C12.3993 0 12.5239 0.0546276 12.6121 0.150708L15.247 3.0135C15.3259 3.09971 15.3702 3.21256 15.3702 3.3295V10.7458H14.5154V3.96989C14.5154 3.85266 14.4202 3.75743 14.3028 3.75743H12.2861C12.0501 3.75743 11.8581 3.56582 11.8581 3.33024V1.06739C11.8581 0.95012 11.7629 0.854929 11.6456 0.854929H4.11915C4.02923 0.854929 3.95605 0.928076 3.95605 1.01792V14.9249L3.30193 16.2483C3.30196 16.2481 3.10431 16.2336 3.10093 15.8581ZM12.7138 2.90295H13.9835L12.7138 1.52286V2.90295ZM13.1769 4.62806H5.29995C5.00975 4.62806 4.77416 4.86386 4.77416 5.15407C4.77416 5.44406 5.00997 5.67997 5.29995 5.67997H13.1771C13.4673 5.67997 13.7036 5.44387 13.7036 5.15407C13.7031 4.86408 13.4669 4.62806 13.1769 4.62806ZM13.7031 8.21704C13.7031 7.92705 13.4671 7.69147 13.1769 7.69147H5.29995C5.00975 7.69147 4.77416 7.9275 4.77416 8.21704C4.77416 8.50703 5.00997 8.74261 5.29995 8.74261H13.1771C13.4669 8.74264 13.7031 8.50703 13.7031 8.21704ZM4.77383 11.3008C4.77383 11.5907 5.00975 11.8263 5.29973 11.8263H5.48859C5.82103 10.8998 6.64512 10.7752 6.64512 10.7752H5.29973C5.01019 10.7752 4.77383 11.0108 4.77383 11.3008Z" fill="white"/>
</svg>
