<svg width="19" height="15" viewBox="0 0 19 15" fill="none" xmlns="http://www.w3.org/2000/svg">
<path d="M1.96554 0C0.879899 0 0 0.879899 0 1.96551C0 3.05111 0.879899 3.93104 1.96554 3.93104C3.05115 3.93104 3.93104 3.05115 3.93104 1.96551C3.93104 0.879868 3.05115 0 1.96554 0ZM1.96554 5.24136C0.879899 5.24136 0 6.12129 0 7.2069C0 8.29254 0.879899 9.17244 1.96554 9.17244C3.05115 9.17244 3.93104 8.29254 3.93104 7.2069C3.93104 6.12129 3.05115 5.24136 1.96554 5.24136ZM1.96554 10.4828C0.879899 10.4828 0 11.3627 0 12.4483C0 13.5339 0.879899 14.4138 1.96554 14.4138C3.05115 14.4138 3.93104 13.5339 3.93104 12.4483C3.93104 11.3627 3.05115 10.4828 1.96554 10.4828ZM7.2069 3.27585H17.6897C18.4136 3.27585 19 2.68946 19 1.96551C19 1.24155 18.4136 0.655158 17.6897 0.655158H7.2069C6.48294 0.655158 5.89655 1.24155 5.89655 1.96551C5.89655 2.68946 6.48294 3.27585 7.2069 3.27585ZM17.6897 5.89655H7.2069C6.48294 5.89655 5.89655 6.48294 5.89655 7.2069C5.89655 7.93086 6.48294 8.51725 7.2069 8.51725H17.6897C18.4136 8.51725 19 7.93086 19 7.2069C19 6.48294 18.4136 5.89655 17.6897 5.89655ZM17.6897 11.1379H7.2069C6.48294 11.1379 5.89655 11.7243 5.89655 12.4483C5.89655 13.1722 6.48294 13.7586 7.2069 13.7586H17.6897C18.4136 13.7586 19 13.1722 19 12.4483C19 11.7243 18.4136 11.1379 17.6897 11.1379Z" fill="white"/>
</svg>
