<svg width="17" height="20" viewBox="0 0 17 20" fill="none" xmlns="http://www.w3.org/2000/svg">
<path d="M15.8236 13.8101C14.589 12.7665 13.8811 11.2412 13.8811 9.62532V7.34882C13.8811 4.47543 11.7467 2.09686 8.98189 1.69839V0.816535C8.98189 0.364991 8.61608 0 8.16535 0C7.71463 0 7.34882 0.364991 7.34882 0.816535V1.69839C4.58321 2.09686 2.44961 4.47543 2.44961 7.34882V9.62532C2.44961 11.2412 1.74167 12.7665 0.49972 13.8166C0.182087 14.0885 0 14.4837 0 14.9018C0 15.6897 0.64098 16.3307 1.42894 16.3307H14.9018C15.6897 16.3307 16.3307 15.6897 16.3307 14.9018C16.3307 14.4837 16.1486 14.0885 15.8236 13.8101Z" fill="white"/>
<path d="M8.16401 19.598C9.64276 19.598 10.8798 18.5439 11.164 17.1484H5.16406C5.44822 18.5439 6.68527 19.598 8.16401 19.598Z" fill="white"/>
</svg>
