<svg width="26" height="18" viewBox="0 0 26 18" fill="none" xmlns="http://www.w3.org/2000/svg">
<path d="M13.3841 13.3268V13.2255C12.8664 13.2199 12.3712 13.1917 11.8929 13.1523C11.6341 13.822 11.2683 14.4466 10.8125 15.0037C11.6735 15.1444 12.5457 15.2231 13.4179 15.2344L13.3841 13.3268Z" fill="white"/>
<path d="M11.105 9.59858C10.6886 7.60657 9.21987 5.98595 7.26725 5.37259C6.72705 5.20941 6.16996 5.125 5.60724 5.125C4.21171 5.13063 2.8612 5.64833 1.83143 6.58243C-0.458819 8.66448 -0.622006 12.2152 1.46004 14.5055C3.54208 16.7957 7.09281 16.9589 9.38306 14.8768C10.5535 13.8133 11.2231 12.3109 11.2175 10.7296C11.2175 10.3526 11.1781 9.96997 11.105 9.59858ZM5.60724 9.9756C6.55823 9.9756 7.39668 10.6058 7.65553 11.5231C7.97065 12.6541 7.3179 13.8246 6.18121 14.1453V14.6405C6.18121 14.95 5.92799 15.2032 5.6185 15.2032C5.30901 15.2032 5.05578 14.95 5.05578 14.6405V14.1509C4.12731 13.8977 3.48581 13.0593 3.48018 12.097C3.48018 11.7875 3.7334 11.5343 4.0429 11.5343C4.35239 11.5343 4.60561 11.7875 4.60561 12.097C4.60561 12.6485 5.05578 13.093 5.60724 13.093C6.1587 13.093 6.60325 12.6429 6.60325 12.0914C6.60325 11.5399 6.15308 11.0954 5.60162 11.0954C4.63937 11.0954 3.80093 10.4483 3.55334 9.5198C3.2551 8.39437 3.93035 7.22393 5.06141 6.92006V6.67809C5.06141 6.3686 5.31463 6.11538 5.62413 6.11538C5.93362 6.11538 6.18684 6.3686 6.18684 6.67809V6.93131C7.10406 7.19016 7.7343 8.02861 7.7343 8.97959C7.7343 9.28909 7.48108 9.54231 7.17159 9.54231C6.8621 9.54231 6.60888 9.28909 6.60888 8.97959C6.60888 8.42813 6.1587 7.97796 5.60724 7.97796C5.05578 7.97796 4.61124 8.42251 4.60561 8.97959C4.60561 9.53105 5.05578 9.9756 5.60724 9.9756Z" fill="white"/>
<path d="M13.3645 12.0939L13.3307 10.1019C12.9818 10.0963 12.6386 10.085 12.3122 10.0625C12.3291 10.2876 12.3404 10.507 12.3404 10.7265C12.3404 11.1654 12.2953 11.61 12.2109 12.0433C12.5823 12.077 12.9706 12.0939 13.3645 12.0939Z" fill="white"/>
<path d="M19.5308 2.78125C19.1425 2.98383 18.7318 3.14701 18.3097 3.27081C17.0436 3.65346 15.3836 3.86166 13.6504 3.86166C11.9904 3.86166 10.4092 3.67034 9.18812 3.31583C8.76608 3.20329 8.36093 3.04573 7.97266 2.84878L8.01205 4.43563C8.64791 4.67197 9.23876 5.0096 9.77334 5.43164C9.79022 5.43726 9.80148 5.43726 9.81836 5.44289C10.8988 5.71862 12.2605 5.86493 13.6504 5.86493C15.2598 5.86493 16.841 5.66235 17.9833 5.31909C19.2044 4.9477 19.4745 4.55943 19.4745 4.48628C19.4745 4.4075 19.4689 4.33434 19.5308 4.25556V2.78125Z" fill="white"/>
<path d="M17.9754 0.545832C16.8331 0.196949 15.2519 0 13.6425 0C12.0219 0 10.5025 0.196949 9.36587 0.545832C8.17854 0.905968 7.91969 1.26048 7.91406 1.37302C7.91406 1.37302 7.91969 1.37302 7.91969 1.38427C7.94783 1.50807 8.28545 1.89072 9.49529 2.2396C10.6151 2.56597 12.0894 2.74604 13.6425 2.74604C15.2519 2.74604 16.8275 2.54909 17.9698 2.20583C19.1909 1.84007 19.4666 1.4518 19.4666 1.37302C19.4666 1.29987 19.1965 0.917222 17.9754 0.545832Z" fill="white"/>
<path d="M25.9881 16.1178V14.4297C25.6111 14.621 25.2172 14.7842 24.8064 14.908C23.5459 15.2906 21.8972 15.4988 20.1584 15.4988C18.6166 15.4988 17.1141 15.3244 15.9324 15.0149C15.4485 14.8911 14.9814 14.7223 14.5312 14.5028L14.5594 16.1347C14.5594 16.1403 14.5594 16.1403 14.5594 16.146C14.5594 16.2304 14.807 16.6074 15.9943 16.9732C17.1197 17.3164 18.6391 17.5077 20.2653 17.5077C21.8859 17.5077 23.4109 17.3108 24.5476 16.9563C25.7349 16.5849 25.9937 16.1966 25.9937 16.1178H25.9881Z" fill="white"/>
<path d="M19.5154 5.91797C19.1271 6.11492 18.722 6.27811 18.2999 6.40191C17.0338 6.78455 15.3738 6.99276 13.635 6.99276C12.7797 6.99276 11.93 6.93649 11.0859 6.82957C11.5417 7.45981 11.8794 8.16884 12.0932 8.92288C12.5771 8.95664 13.1005 8.97915 13.6407 8.97915C13.6575 8.97915 13.68 8.97915 13.6969 8.97915C14.6198 7.96626 17.1013 7.45981 19.5154 7.39229V5.91797Z" fill="white"/>
<path d="M24.7669 11.7947C23.512 12.1661 21.8802 12.3687 20.1695 12.3687C18.5095 12.3687 16.9283 12.1774 15.7072 11.8228C15.2851 11.7047 14.8744 11.5471 14.4805 11.3502L14.503 12.6444L14.5086 13.1171C14.9475 13.6629 17.0464 14.3663 20.1639 14.3663C21.7901 14.3663 23.3263 14.175 24.4799 13.8261C25.6954 13.4547 25.9598 13.0721 25.9598 12.9933C25.9598 12.9314 25.9936 12.8639 25.9936 12.8076H25.9992V11.3164C25.6053 11.5134 25.1946 11.6822 24.7669 11.7947Z" fill="white"/>
<path d="M24.5027 9.06583C23.3548 8.71695 21.7792 8.53125 20.1698 8.53125H20.0742C18.5774 8.53125 17.1537 8.70006 16.062 9.00956C14.8972 9.33593 14.4977 9.70732 14.447 9.85926C14.4414 9.87051 14.4414 9.87614 14.4414 9.88176C14.4414 9.88176 14.4414 9.88177 14.4527 9.90427C14.4864 10.0224 14.8184 10.4051 16.0283 10.7596C17.1481 11.0803 18.6224 11.2604 20.1755 11.2604C21.7792 11.2604 23.2985 11.0747 24.4521 10.7315C25.7013 10.3601 25.9827 9.9718 25.9883 9.88739V9.88176C25.9827 9.79736 25.7013 9.42597 24.5027 9.06583Z" fill="white"/>
</svg>
