<svg width="25" height="17" viewBox="0 0 25 17" fill="none" xmlns="http://www.w3.org/2000/svg">
<path d="M12.8693 12.8131V12.7157C12.3715 12.7103 11.8953 12.6833 11.4354 12.6454C11.1865 13.2893 10.8348 13.8899 10.3965 14.4256C11.2244 14.5608 12.063 14.6366 12.9017 14.6474L12.8693 12.8131Z" fill="white"/>
<path d="M10.6782 9.23097C10.2778 7.31552 8.86552 5.75719 6.98795 5.1674C6.4685 5.01048 5.93283 4.92932 5.39174 4.92932C4.04984 4.93473 2.75123 5.43253 1.76104 6.33074C-0.441185 8.33276 -0.5981 11.747 1.40392 13.9493C3.40595 16.1515 6.82021 16.3084 9.02244 14.3064C10.1479 13.2837 10.7918 11.839 10.7864 10.3186C10.7864 9.95603 10.7485 9.58809 10.6782 9.23097ZM5.39174 9.5935C6.30618 9.5935 7.1124 10.1995 7.3613 11.0815C7.66431 12.1691 7.03665 13.2945 5.94365 13.603V14.0791C5.94365 14.3767 5.70016 14.6202 5.40256 14.6202C5.10496 14.6202 4.86147 14.3767 4.86147 14.0791V13.6084C3.96868 13.3649 3.35184 12.5587 3.34643 11.6334C3.34643 11.3358 3.58992 11.0923 3.88752 11.0923C4.18511 11.0923 4.4286 11.3358 4.4286 11.6334C4.4286 12.1637 4.86147 12.5911 5.39174 12.5911C5.92201 12.5911 6.34946 12.1583 6.34946 11.628C6.34946 11.0977 5.91659 10.6703 5.38633 10.6703C4.46107 10.6703 3.65485 10.048 3.41677 9.15522C3.12999 8.07304 3.7793 6.94758 4.86688 6.65539V6.42272C4.86688 6.12513 5.11037 5.88164 5.40797 5.88164C5.70557 5.88164 5.94906 6.12513 5.94906 6.42272V6.66621C6.83103 6.91511 7.43705 7.72133 7.43705 8.63577C7.43705 8.93337 7.19356 9.17686 6.89596 9.17686C6.59836 9.17686 6.35488 8.93337 6.35488 8.63577C6.35488 8.10551 5.92201 7.67264 5.39174 7.67264C4.86147 7.67264 4.43401 8.10009 4.4286 8.63577C4.4286 9.16604 4.86147 9.5935 5.39174 9.5935Z" fill="white"/>
<path d="M12.8504 11.628L12.818 9.71256C12.4825 9.70715 12.1524 9.69633 11.8386 9.67468C11.8548 9.89112 11.8657 10.1021 11.8657 10.3132C11.8657 10.7352 11.8224 11.1627 11.7412 11.5793C12.0983 11.6118 12.4717 11.628 12.8504 11.628Z" fill="white"/>
<path d="M18.78 2.67297C18.4066 2.86777 18.0116 3.02468 17.6058 3.14372C16.3883 3.51166 14.7921 3.71186 13.1256 3.71186C11.5294 3.71186 10.0089 3.52789 8.83477 3.18701C8.42895 3.07879 8.03937 2.92728 7.66602 2.7379L7.70389 4.26377C8.31532 4.49103 8.88346 4.81568 9.3975 5.2215C9.41373 5.22691 9.42455 5.22691 9.44078 5.23232C10.4797 5.49745 11.7891 5.63813 13.1256 5.63813C14.6731 5.63813 16.1936 5.44334 17.292 5.11328C18.4661 4.75616 18.7258 4.38281 18.7258 4.31247C18.7258 4.23672 18.7204 4.16638 18.78 4.09062V2.67297Z" fill="white"/>
<path d="M17.285 0.524853C16.1866 0.18938 14.6661 0 13.1186 0C11.5603 0 10.0994 0.18938 9.00636 0.524853C7.86466 0.871149 7.61576 1.21203 7.61035 1.32025C7.61035 1.32025 7.61576 1.32025 7.61576 1.33107C7.64282 1.45011 7.96747 1.81805 9.13081 2.15352C10.2076 2.46735 11.6252 2.6405 13.1186 2.6405C14.6661 2.6405 16.1812 2.45112 17.2796 2.12106C18.4537 1.76935 18.7189 1.396 18.7189 1.32025C18.7189 1.24991 18.4592 0.88197 17.285 0.524853Z" fill="white"/>
<path d="M24.9892 15.4967V13.8734C24.6267 14.0574 24.2479 14.2143 23.8529 14.3333C22.6409 14.7013 21.0555 14.9015 19.3835 14.9015C17.901 14.9015 16.4562 14.7337 15.32 14.4361C14.8546 14.3171 14.4055 14.1548 13.9727 13.9438L13.9997 15.5129C13.9997 15.5183 13.9997 15.5183 13.9997 15.5237C13.9997 15.6049 14.2378 15.9674 15.3795 16.3191C16.4617 16.6492 17.9226 16.8332 19.4863 16.8332C21.0447 16.8332 22.511 16.6438 23.604 16.3029C24.7457 15.9458 24.9946 15.5724 24.9946 15.4967H24.9892Z" fill="white"/>
<path d="M18.7656 5.69226C18.3923 5.88164 18.0027 6.03856 17.5969 6.1576C16.3794 6.52554 14.7832 6.72574 13.1113 6.72574C12.2888 6.72574 11.4718 6.67163 10.6602 6.56883C11.0984 7.17485 11.4231 7.85662 11.6287 8.58168C12.094 8.61415 12.5972 8.63579 13.1167 8.63579C13.1329 8.63579 13.1546 8.63579 13.1708 8.63579C14.0582 7.66183 16.4444 7.17485 18.7656 7.10992V5.69226Z" fill="white"/>
<path d="M23.8149 11.3411C22.6083 11.6983 21.0391 11.8931 19.3942 11.8931C17.798 11.8931 16.2776 11.7091 15.1034 11.3682C14.6976 11.2546 14.3026 11.1031 13.9238 10.9137L13.9455 12.1582L13.9509 12.6127C14.3729 13.1376 16.3912 13.8139 19.3888 13.8139C20.9526 13.8139 22.4297 13.6299 23.539 13.2945C24.7077 12.9374 24.962 12.5694 24.962 12.4937C24.962 12.4341 24.9945 12.3692 24.9945 12.3151H24.9999V10.8812C24.6211 11.0706 24.2261 11.2329 23.8149 11.3411Z" fill="white"/>
<path d="M23.5614 8.71691C22.4575 8.38144 20.9425 8.20288 19.395 8.20288H19.303C17.8637 8.20288 16.4948 8.36521 15.4451 8.66281C14.325 8.97664 13.9408 9.33375 13.8921 9.47985C13.8867 9.49067 13.8867 9.49608 13.8867 9.50149C13.8867 9.50149 13.8867 9.50149 13.8975 9.52313C13.93 9.63676 14.2492 10.0047 15.4126 10.3456C16.4894 10.654 17.907 10.8272 19.4004 10.8272C20.9425 10.8272 22.4034 10.6486 23.5127 10.3185C24.7139 9.96142 24.9844 9.58807 24.9898 9.5069V9.50149C24.9844 9.42033 24.7139 9.06321 23.5614 8.71691Z" fill="white"/>
</svg>
