<svg width="26" height="24" viewBox="0 0 26 24" fill="none" xmlns="http://www.w3.org/2000/svg">
<path d="M9.81618 14.9017C10.6972 15.705 11.7585 16.1067 13 16.1067C14.2415 16.1067 15.3028 15.705 16.1838 14.9017C17.0649 14.0983 17.5054 13.1307 17.5054 11.9987C17.5054 10.8667 17.0649 9.89906 16.1838 9.09572C15.3028 8.29239 14.2415 7.89072 13 7.89072C11.7585 7.89072 10.6972 8.29239 9.81618 9.09572C8.93512 9.89906 8.49459 10.8667 8.49459 11.9987C8.49459 13.1307 8.93512 14.0983 9.81618 14.9017ZM22.5515 13.1489L25.2547 15.066C25.535 15.2486 25.5751 15.5042 25.3748 15.8328L22.7917 19.886C22.6316 20.1416 22.3712 20.2147 22.0108 20.1051L18.827 18.9549C17.986 19.5026 17.2651 19.886 16.6644 20.1051L16.1838 23.1724C16.1037 23.501 15.9035 23.6654 15.5831 23.6654H10.4169C10.0965 23.6654 9.89628 23.501 9.81618 23.1724L9.3356 20.1051C8.57469 19.813 7.85382 19.4296 7.17301 18.9549L3.98919 20.1051C3.62875 20.2147 3.36844 20.1416 3.20825 19.886L0.62515 15.8328C0.42491 15.5042 0.464958 15.2486 0.745294 15.066L3.44854 13.1489C3.40849 12.8933 3.38847 12.5099 3.38847 11.9987C3.38847 11.4875 3.40849 11.1041 3.44854 10.8485L0.745294 8.93141C0.464958 8.74883 0.42491 8.49322 0.62515 8.16458L3.20825 4.11137C3.36844 3.85577 3.62875 3.78274 3.98919 3.89228L7.17301 5.04252C8.01402 4.49479 8.73488 4.11137 9.3356 3.89228L9.81618 0.824989C9.89628 0.49635 10.0965 0.332031 10.4169 0.332031H15.5831C15.9035 0.332031 16.1037 0.49635 16.1838 0.824989L16.6644 3.89228C17.4253 4.1844 18.1462 4.56782 18.827 5.04252L22.0108 3.89228C22.3712 3.78274 22.6316 3.85577 22.7917 4.11137L25.3748 8.16458C25.5751 8.49322 25.535 8.74883 25.2547 8.93141L22.5515 10.8485C22.5915 11.1041 22.6115 11.4875 22.6115 11.9987C22.6115 12.5099 22.5915 12.8933 22.5515 13.1489Z" fill="white"/>
</svg>
