<svg width="26" height="20" viewBox="0 0 26 20" fill="none" xmlns="http://www.w3.org/2000/svg">
<path d="M13.0229 14.8945H12.977C11.5073 14.8945 10.0273 13.751 8.94678 12.916C8.77099 12.7803 1.70947 7.60449 0.5 6.65869V17.2383C0.5 17.8599 0.74693 18.456 1.18647 18.8956C1.62601 19.3351 2.22215 19.582 2.84375 19.582H23.1562C23.7778 19.582 24.374 19.3351 24.8135 18.8956C25.2531 18.456 25.5 17.8599 25.5 17.2383V6.66015C24.3057 7.59619 17.2285 12.7803 17.0527 12.916C15.9727 13.751 14.4927 14.8945 13.0229 14.8945ZM23.1562 0.832031H2.84375C2.22215 0.832031 1.62601 1.07896 1.18647 1.5185C0.74693 1.95804 0.5 2.55418 0.5 3.17578L0.5 4.10351C0.500239 4.28129 0.540787 4.4567 0.618595 4.61655C0.696404 4.77639 0.809446 4.91651 0.949219 5.02637C2.44336 6.19336 2.93652 6.6084 9.41601 11.3105C10.2363 11.9062 11.8672 13.3516 13 13.332C14.1328 13.3516 15.7637 11.9062 16.584 11.3105C23.0635 6.6084 23.5566 6.19824 25.0508 5.02637C25.191 4.91688 25.3043 4.77683 25.3821 4.61691C25.46 4.45698 25.5003 4.28138 25.5 4.10351V3.17578C25.5 2.55418 25.2531 1.95804 24.8135 1.5185C24.374 1.07896 23.7778 0.832031 23.1562 0.832031Z" fill="white"/>
</svg>
