<svg width="17" height="17" viewBox="0 0 17 17" fill="none" xmlns="http://www.w3.org/2000/svg">
<path d="M14.8202 0H8.98649C8.61727 0 8.26268 0.146991 8.00144 0.408231L0.408057 8.00022C-0.136019 8.5443 -0.136019 9.42625 0.408057 9.97102L6.24173 15.8047C6.7858 16.3488 7.66775 16.3488 8.21183 15.8047L15.8052 8.2127C16.0665 7.95076 16.2134 7.59617 16.2134 7.22625V1.39328C16.2134 0.623493 15.59 0 14.8202 0ZM12.3819 4.87649C11.8051 4.87649 11.337 4.40834 11.337 3.83152C11.337 3.25471 11.8051 2.78656 12.3819 2.78656C12.9587 2.78656 13.4269 3.25471 13.4269 3.83152C13.4269 4.40834 12.9587 4.87649 12.3819 4.87649Z" fill="white"/>
</svg>
