<svg width="22" height="22" viewBox="0 0 22 22" fill="none" xmlns="http://www.w3.org/2000/svg">
<path d="M14.8744 5.53186C15.0434 5.54759 15.2122 5.56735 15.3774 5.59075C14.6895 3.33053 13.0241 1.49806 10.8398 0.597656C11.8993 1.74263 12.6355 3.14868 12.9731 4.67154C13.6389 4.8812 14.2773 5.17009 14.8744 5.53186Z" fill="white"/>
<path d="M14.9269 14.1412C14.9269 14.5753 14.5751 14.9269 14.1412 14.9269C13.7073 14.9269 13.3555 14.5753 13.3555 14.1412C13.3555 13.7073 13.7073 13.3555 14.1412 13.3555C14.5751 13.3555 14.9269 13.7073 14.9269 14.1412Z" fill="white"/>
<path d="M12.3882 5.6819C12.3646 5.5484 12.3372 5.41873 12.3098 5.28906C10.8594 4.89487 9.36168 4.7019 7.85878 4.71552C6.35587 4.70228 4.85815 4.89525 3.4078 5.28906C3.05677 6.98397 3.05677 8.73279 3.4078 10.4275C4.29861 10.6727 5.20975 10.837 6.1303 10.9186C7.21196 8.23828 9.55926 6.27405 12.3882 5.6819Z" fill="white"/>
<path d="M19.6434 13.7502H20.8018C20.6025 10.2187 17.6805 7.45703 14.1432 7.45703C10.6059 7.45703 7.68387 10.2187 7.48438 13.7502H8.64373V14.5359H7.48514C7.68694 17.9093 10.3774 20.5997 13.7507 20.8015V19.6429H14.5364V20.8015C17.9096 20.5997 20.6 17.9093 20.8018 14.5359H19.6434V13.7502ZM15.715 14.1431C15.7123 14.8576 15.2281 15.4803 14.5364 15.6588V16.5002H13.7507V15.6588C13.6101 15.6222 13.4753 15.566 13.3504 15.4918L12.8499 15.9922L12.2944 15.4367L12.7949 14.9363C12.6505 14.6969 12.5735 14.4228 12.5722 14.1431C12.5749 13.4288 13.059 12.8061 13.7507 12.6275V7.85755H14.5364V12.6275C14.677 12.664 14.8119 12.7202 14.9367 12.7946L16.2229 11.5083L16.7784 12.0638L15.4923 13.3499C15.6365 13.5895 15.7136 13.8636 15.715 14.1431Z" fill="white"/>
<path d="M14.1421 6.28516C9.80274 6.28516 6.28516 9.80293 6.28516 14.1421C6.28516 18.4814 9.80274 21.999 14.1421 21.999C18.4812 21.999 21.999 18.4814 21.999 14.1421C21.9946 9.80466 18.4795 6.28957 14.1421 6.28516ZM14.1421 21.6061C10.0197 21.6061 6.678 18.2645 6.678 14.1421C6.678 10.0199 10.0197 6.678 14.1421 6.678C18.2643 6.678 21.6061 10.0199 21.6061 14.1421C21.6015 18.2625 18.2624 21.6017 14.1421 21.6061Z" fill="white"/>
<path d="M7.85596 3.92846C9.2806 3.92079 10.7012 4.08441 12.0869 4.41568C11.3012 1.74824 9.64736 0 7.85596 0C6.06456 0 4.41069 1.74824 3.625 4.41568C5.0107 4.08441 6.43113 3.92079 7.85596 3.92846Z" fill="white"/>
<path d="M2.5497 10.1469C2.29304 8.63093 2.29304 7.08237 2.5497 5.56641C1.0019 6.15165 0.0629358 6.95308 0.00404684 7.77407C0.000785889 7.78424 -0.000556858 7.79498 0.000210427 7.80553V7.9235C0.0629358 8.75619 1.0019 9.56165 2.5497 10.1469Z" fill="white"/>
<path d="M4.8779 0.589844C2.56704 1.54914 0.844487 3.54254 0.230469 5.96811C0.977802 5.38133 1.82968 4.9413 2.74083 4.6716C3.07977 3.14605 3.81713 1.7377 4.8779 0.589844Z" fill="white"/>
<path d="M0.230469 9.74219C0.818975 12.1789 2.54421 14.1834 4.8662 15.1281C3.81119 13.9764 3.07805 12.5673 2.74083 11.0425C1.82795 10.775 0.975692 10.3334 0.230469 9.74219Z" fill="white"/>
<path d="M3.625 11.2969C3.95666 12.5598 4.60731 13.7165 5.51463 14.6557C5.50676 14.4869 5.4989 14.314 5.4989 14.141C5.49832 13.3083 5.61878 12.48 5.85626 11.6819C5.10451 11.6061 4.35871 11.4774 3.625 11.2969Z" fill="white"/>
</svg>
